<?xml version="1.0" encoding="utf-8"?>
<!-- Generator: Adobe Illustrator 16.0.4, SVG Export Plug-In . SVG Version: 6.00 Build 0)  -->
<!DOCTYPE svg PUBLIC "-//W3C//DTD SVG 1.1//EN" "http://www.w3.org/Graphics/SVG/1.1/DTD/svg11.dtd">
<svg version="1.1" id="Layer_1" xmlns="http://www.w3.org/2000/svg" xmlns:xlink="http://www.w3.org/1999/xlink" x="0px" y="0px"
	 width="14.056px" height="13.029px" viewBox="0 0 14.056 13.029" enable-background="new 0 0 14.056 13.029" xml:space="preserve">
<path fill="#928F8B" d="M7.114,0.03c-3.84,0.28-6.94,2.729-7.11,5.979l0,0c-0.07,1.91,0.91,3.59,2.46,4.621l0,0
	c0.061,0.24,0.17,0.82,0.01,1.189l0,0c-0.279,0.66-1.04,1.16-1.04,1.16l0,0c0,0,0.86,0.189,1.82-0.18l0,0
	c0.67-0.26,1.55-1.03,1.71-1.17l0,0c0.63,0.109,1.29,0.14,1.97,0.07l0,0c3.761-0.311,6.87-2.761,7.11-5.98l0,0
	C14.274,2.56,11.374,0,7.704,0l0,0C7.513,0,7.313,0.01,7.114,0.03L7.114,0.03z"/>
</svg>
