<?xml version="1.0" encoding="utf-8"?>
<!-- Generator: Adobe Illustrator 16.0.4, SVG Export Plug-In . SVG Version: 6.00 Build 0)  -->
<!DOCTYPE svg PUBLIC "-//W3C//DTD SVG 1.1//EN" "http://www.w3.org/Graphics/SVG/1.1/DTD/svg11.dtd">
<svg version="1.1" id="Layer_1" xmlns="http://www.w3.org/2000/svg" xmlns:xlink="http://www.w3.org/1999/xlink" x="0px" y="0px"
	 width="16.025px" height="15.948px" viewBox="0 0 16.025 15.948" enable-background="new 0 0 16.025 15.948" xml:space="preserve">
<path fill="#454545" d="M0,6.49c0,3.58,2.9,6.48,6.49,6.48l0,0c1.1,0,2.13-0.301,3.049-0.791l0,0L12.8,15.4
	c0.739,0.73,1.94,0.73,2.67,0l0,0c0.739-0.73,0.739-1.91,0-2.641l0,0l-3.29-3.24c0.49-0.908,0.79-1.93,0.79-3.029l0,0
	C12.97,2.91,10.06,0,6.49,0l0,0C2.9,0,0,2.91,0,6.49 M2,6.461c0-2.48,2.01-4.49,4.49-4.49l0,0c2.469,0,4.48,2.01,4.48,4.49l0,0
	c0,2.48-2.011,4.48-4.48,4.48l0,0C4.01,10.941,2,8.941,2,6.461L2,6.461z"/>
</svg>
