<?xml version="1.0" encoding="utf-8"?>
<!-- Generator: Adobe Illustrator 16.0.4, SVG Export Plug-In . SVG Version: 6.00 Build 0)  -->
<!DOCTYPE svg PUBLIC "-//W3C//DTD SVG 1.1//EN" "http://www.w3.org/Graphics/SVG/1.1/DTD/svg11.dtd">
<svg version="1.1" id="Layer_1" xmlns="http://www.w3.org/2000/svg" xmlns:xlink="http://www.w3.org/1999/xlink" x="0px" y="0px"
	 width="256.446px" height="76.79px" viewBox="0 0 256.446 76.79" enable-background="new 0 0 256.446 76.79" xml:space="preserve">
<g>
	<path d="M0.038,28.254h5.437v11.653l9.787-11.653h6.679l-11.146,12.78l11.612,14.328h-7.107L5.553,42.78H5.475v12.582H0.038V28.254
		z"/>
	<path d="M24.506,36.411c2.018-0.934,4.737-1.516,6.951-1.516c6.096,0,8.62,2.525,8.62,8.428v2.562c0,2.021,0.039,3.535,0.078,5.01
		c0.039,1.516,0.116,2.913,0.233,4.467h-4.582c-0.194-1.049-0.194-2.368-0.234-2.99h-0.078c-1.205,2.216-3.805,3.455-6.174,3.455
		c-3.534,0-6.99-2.135-6.99-5.94c0-2.99,1.436-4.739,3.417-5.709c1.981-0.972,4.543-1.163,6.718-1.163h2.874
		c0-3.225-1.437-4.311-4.505-4.311c-2.213,0-4.427,0.854-6.174,2.172L24.506,36.411z M30.603,52.022c1.592,0,2.835-0.7,3.65-1.785
		c0.854-1.126,1.087-2.564,1.087-4.118h-2.253c-2.33,0-5.787,0.39-5.787,3.456C27.301,51.286,28.738,52.022,30.603,52.022z"/>
	<path d="M55.535,39.557c-1.593-0.543-2.757-0.854-4.659-0.854c-1.397,0-3.068,0.505-3.068,2.213c0,3.184,9.049,1.165,9.049,8.389
		c0,4.66-4.155,6.524-8.389,6.524c-1.98,0-3.999-0.351-5.902-0.854l0.311-4.271c1.632,0.816,3.34,1.318,5.128,1.318
		c1.32,0,3.417-0.503,3.417-2.445c0-3.922-9.048-1.244-9.048-8.465c0-4.312,3.769-6.216,7.846-6.216
		c2.446,0,4.039,0.389,5.671,0.739L55.535,39.557z"/>
	<path d="M75.652,54.237c-1.903,1.049-4.079,1.593-6.875,1.593c-6.601,0-10.445-3.808-10.445-10.368
		c0-5.787,3.067-10.566,9.28-10.566c7.418,0,9.514,5.089,9.514,12.08H63.3c0.235,3.223,2.486,5.047,5.709,5.047
		c2.526,0,4.698-0.932,6.641-2.02v4.234H75.652z M72.156,43.401c-0.155-2.525-1.321-4.698-4.232-4.698
		c-2.914,0-4.389,2.02-4.624,4.698H72.156z"/>
	<path d="M87.536,49.962h0.078l4.813-14.601h5.282l-7.496,19.846c-1.67,4.428-2.872,8.775-8.312,8.775
		c-1.241,0-2.483-0.191-3.688-0.543l0.349-3.844c0.661,0.231,1.398,0.348,2.681,0.348c2.095,0,3.378-1.436,3.378-3.572l-7.65-21.01
		h5.748L87.536,49.962z"/>
	<path d="M99.031,36.411c2.018-0.934,4.739-1.516,6.953-1.516c6.096,0,8.619,2.525,8.619,8.428v2.562c0,2.021,0.04,3.535,0.078,5.01
		c0.041,1.516,0.117,2.913,0.236,4.467h-4.583c-0.194-1.049-0.194-2.368-0.233-2.99h-0.078c-1.205,2.216-3.806,3.455-6.174,3.455
		c-3.537,0-6.992-2.135-6.992-5.94c0-2.99,1.437-4.739,3.417-5.709c1.981-0.972,4.545-1.163,6.72-1.163h2.874
		c0-3.225-1.438-4.311-4.505-4.311c-2.216,0-4.428,0.854-6.174,2.172L99.031,36.411z M105.128,52.022c1.594,0,2.833-0.7,3.651-1.785
		c0.854-1.126,1.088-2.564,1.088-4.118h-2.252c-2.331,0-5.788,0.39-5.788,3.456C101.826,51.286,103.266,52.022,105.128,52.022z"/>
</g>
<g>
	<path fill="#0A72BA" d="M80.79,14.282c-0.751,0.229-3.223,6.639-4.521,10.186c2.331,1.61,4.761,3.055,7.005,4.038
		c4.503,1.97,5.91,1.169,8.705-0.094c2.003-0.904,5.146-3.02,7.899-5.03c-3.344-2.195-7.552-4.854-9.96-5.99
		C85.403,15.255,81.879,13.951,80.79,14.282z"/>
	<path fill="#0A72BA" d="M82.642,10.923c0,0,4.109-2.416,10.697-4.769c3.532-1.261,7.044-1.883,9.545-2.188
		c-1.411-0.398-2.729-0.767-3.723-1.042c-3.146-0.867-7.678-1.937-11.473-2.522c-0.179,0.908-0.616,2.394-1.72,4.527
		C84.473,7.81,82.642,10.923,82.642,10.923z"/>
	<path fill="#0A72BA" d="M84.657,0.043c-3.448-0.237-3.977,0.545-4.646,1.013c-1.772,0.97-9.111,5.356-12.668,8.455
		c-3.37,2.936-2.808,4.771-1.238,6.617c1.271,1.495,3.5,3.268,6.968,5.981c0.158,0.125,0.318,0.247,0.479,0.373
		c1.394-3.091,4.429-9.795,5.92-12.938C81.22,5.857,83.596,1.814,84.657,0.043z"/>
	<path fill="#0A72BA" d="M114.811,7.764c-1.205-0.629-2.278-0.969-3.212-1.273c-0.472-0.153-1.709-0.518-3.263-0.967
		c-2.753,0.361-7.314,1.049-11.734,2.108c-4.579,1.098-12.268,4.832-12.268,4.832s9.721,3.127,18.831,8.422
		c0.305-0.242,0.586-0.467,0.842-0.677c2.824-2.313,10-8.272,11.53-10.876C115.913,8.688,115.594,8.172,114.811,7.764z"/>
</g>
<path fill="#FFFFFF" d="M96.604,7.63c4.417-1.058,8.98-1.746,11.731-2.108c-1.632-0.473-3.617-1.038-5.451-1.555
	c-2.5,0.305-6.012,0.927-9.543,2.188c-6.591,2.353-10.7,4.769-10.7,4.769s1.833-3.114,3.327-5.992
	c1.105-2.134,1.54-3.619,1.721-4.527c-0.454-0.071-0.898-0.133-1.328-0.188c-0.635-0.081-1.2-0.136-1.702-0.172
	c-1.064,1.771-3.439,5.813-5.185,9.503c-1.491,3.142-4.528,9.846-5.921,12.937c0.878,0.675,1.79,1.343,2.719,1.984
	c1.297-3.547,3.768-9.957,4.52-10.186c1.089-0.331,4.613,0.974,9.129,3.107c2.409,1.137,6.617,3.796,9.959,5.991
	c1.22-0.891,2.357-1.76,3.288-2.496c-9.11-5.294-18.829-8.422-18.829-8.422S92.022,8.727,96.604,7.63z"/>
<path fill="#333333" d="M5.222,71.063H3.016v5.672h-0.81v-5.672H0v-0.72h5.222V71.063z"/>
<path fill="#333333" d="M13.69,70.343v6.392h-0.81v-2.908H9.36v2.908H8.55v-6.392H9.36v2.764h3.52v-2.764H13.69z"/>
<path fill="#333333" d="M21.961,76.015v0.72h-4.339v-6.392h4.258v0.72h-3.448v2.071h2.998v0.675h-2.998v2.206H21.961z"/>
<path fill="#333333" d="M30.177,76.735v-6.383h0.811v6.383H30.177z"/>
<path fill="#333333" d="M39.539,71.063h-2.206v5.672h-0.81v-5.672h-2.206v-0.72h5.222V71.063z"/>
<path fill="#333333" d="M52.813,76.735v-4.942l-2.125,3.79h-0.459l-2.133-3.79v4.942h-0.811v-6.392h0.855l2.313,4.15l2.323-4.15
	h0.846v6.392H52.813z"/>
<path fill="#333333" d="M56.889,76.735l2.629-6.392h0.666l2.62,6.392h-0.864l-0.756-1.873H58.5l-0.747,1.873H56.889z M59.851,71.28
	l-1.188,2.953h2.341L59.851,71.28z"/>
<path fill="#333333" d="M66.87,71.856v4.879H66.06v-6.392h0.63l3.961,4.979v-4.969h0.811v6.383h-0.685L66.87,71.856z"/>
<path fill="#333333" d="M74.727,76.735l2.629-6.392h0.666l2.62,6.392h-0.864l-0.756-1.873h-2.683l-0.747,1.873H74.727z
	 M77.688,71.28L76.5,74.232h2.341L77.688,71.28z"/>
<path fill="#333333" d="M88.426,75.871c-0.567,0.612-1.206,0.909-1.944,0.909c-1.692,0-2.98-1.611-2.98-3.259
	c0-1.72,1.27-3.223,2.98-3.223c1.233,0,2.025,0.567,2.439,1.396L88.3,72.126c-0.378-0.738-1.053-1.098-1.836-1.098
	c-1.306,0-2.143,1.215-2.143,2.512c0,1.368,0.963,2.512,2.224,2.512c0.684,0,1.314-0.324,1.881-1.008v-0.882h-1.377v-0.612h2.062
	v3.187h-0.685V75.871z"/>
<path fill="#333333" d="M97.102,76.015v0.72h-4.339v-6.392h4.258v0.72h-3.448v2.071h2.998v0.675h-2.998v2.206H97.102z"/>
<path fill="#333333" d="M106.183,76.735v-4.942l-2.125,3.79h-0.459l-2.133-3.79v4.942h-0.811v-6.392h0.855l2.313,4.15l2.323-4.15
	h0.846v6.392H106.183z"/>
<path fill="#333333" d="M115.264,76.015v0.72h-4.339v-6.392h4.258v0.72h-3.448v2.071h2.998v0.675h-2.998v2.206H115.264z"/>
<path fill="#333333" d="M119.627,71.856v4.879h-0.811v-6.392h0.63l3.961,4.979v-4.969h0.811v6.383h-0.685L119.627,71.856z"/>
<path fill="#333333" d="M132.769,71.063h-2.207v5.672h-0.81v-5.672h-2.206v-0.72h5.222V71.063z"/>
<path fill="#333333" d="M143.154,70.308c1.135,0,1.98,0.576,2.377,1.395l-0.64,0.415c-0.378-0.811-1.126-1.081-1.773-1.081
	c-1.423,0-2.188,1.288-2.188,2.494c0,1.333,0.945,2.53,2.215,2.53c0.666,0,1.459-0.333,1.828-1.125l0.676,0.369
	c-0.406,0.955-1.549,1.486-2.539,1.486c-1.756,0-2.998-1.675-2.998-3.295C140.111,71.946,141.227,70.308,143.154,70.308z"/>
<path fill="#333333" d="M149.066,76.735v-6.392h0.811v5.672h3.564v0.72H149.066z"/>
<path fill="#333333" d="M156.023,73.54c0-1.702,1.297-3.241,3.025-3.241c1.791,0,2.998,1.647,2.998,3.25
	c0,1.702-1.288,3.232-3.017,3.232C157.238,76.78,156.023,75.178,156.023,73.54z M159.039,76.051c1.359,0,2.188-1.278,2.188-2.512
	c0-1.306-0.891-2.503-2.188-2.503c-1.359,0-2.196,1.26-2.196,2.503C156.842,74.845,157.715,76.051,159.039,76.051z"/>
<path fill="#333333" d="M170.119,73.575v-3.232h0.81v3.232c0,1.729-0.757,3.205-2.719,3.205c-2.034,0-2.728-1.566-2.728-3.205
	v-3.232h0.811v3.232c0,1.261,0.449,2.476,1.908,2.476C169.686,76.051,170.119,74.8,170.119,73.575z"/>
<path fill="#333333" d="M174.761,76.735v-6.392h2.215c2.053,0,3.088,1.422,3.088,3.187c0,1.936-1.207,3.205-3.088,3.205H174.761z
	 M176.976,71.063h-1.404v4.952h1.404c1.477,0,2.268-1.071,2.268-2.485C179.244,72.09,178.425,71.063,176.976,71.063z"/>
<path fill="#333333" d="M190.925,70.308c1.135,0,1.98,0.576,2.377,1.395l-0.639,0.415c-0.379-0.811-1.126-1.081-1.773-1.081
	c-1.424,0-2.188,1.288-2.188,2.494c0,1.333,0.945,2.53,2.215,2.53c0.666,0,1.458-0.333,1.827-1.125l0.676,0.369
	c-0.405,0.955-1.549,1.486-2.539,1.486c-1.756,0-2.998-1.675-2.998-3.295C187.882,71.946,189,70.308,190.925,70.308z"/>
<path fill="#333333" d="M196.37,73.54c0-1.702,1.296-3.241,3.024-3.241c1.792,0,2.998,1.647,2.998,3.25
	c0,1.702-1.287,3.232-3.016,3.232C197.585,76.78,196.37,75.178,196.37,73.54z M199.386,76.051c1.359,0,2.188-1.278,2.188-2.512
	c0-1.306-0.893-2.503-2.188-2.503c-1.36,0-2.197,1.26-2.197,2.503C197.189,74.845,198.062,76.051,199.386,76.051z"/>
<path fill="#333333" d="M211.455,76.735v-4.942l-2.124,3.79h-0.46l-2.133-3.79v4.942h-0.811v-6.392h0.855l2.313,4.15l2.323-4.15
	h0.846v6.392H211.455z"/>
<path fill="#333333" d="M216.197,76.735v-6.392h2.664c1.125,0,1.936,1.036,1.936,2.044c0,1.053-0.756,2.052-1.881,2.052h-1.908
	v2.296H216.197z M217.007,73.719h1.863c0.666,0,1.107-0.603,1.107-1.332c0-0.756-0.541-1.324-1.162-1.324h-1.809V73.719z"/>
<path fill="#333333" d="M223.09,76.735l2.629-6.392h0.666l2.62,6.392h-0.865l-0.756-1.873h-2.683l-0.747,1.873H223.09z
	 M226.052,71.28l-1.188,2.953h2.341L226.052,71.28z"/>
<path fill="#333333" d="M233.072,71.856v4.879h-0.811v-6.392h0.631l3.961,4.979v-4.969h0.811v6.383h-0.686L233.072,71.856z"/>
<path fill="#333333" d="M241.756,70.343l1.936,3.331l1.954-3.331h0.882l-2.431,4.061v2.332h-0.811v-2.35l-2.422-4.042H241.756z"/>
<path fill="#333333" d="M252.365,69.562h-1.045v2.552h-0.66v-2.552h-1.046v-0.66h2.751V69.562z M255.5,68.924h0.946v3.19h-0.66
	v-2.289l-0.858,1.827h-0.539l-0.857-1.827v2.289h-0.66v-3.19h0.936l0.847,1.958L255.5,68.924z"/>
</svg>
