<?xml version="1.0" encoding="utf-8"?>
<!-- Generator: Adobe Illustrator 16.0.4, SVG Export Plug-In . SVG Version: 6.00 Build 0)  -->
<!DOCTYPE svg PUBLIC "-//W3C//DTD SVG 1.1//EN" "http://www.w3.org/Graphics/SVG/1.1/DTD/svg11.dtd">
<svg version="1.1" id="Layer_1" xmlns="http://www.w3.org/2000/svg" xmlns:xlink="http://www.w3.org/1999/xlink" x="0px" y="0px"
	 width="15.987px" height="9.992px" viewBox="0 0 15.987 9.992" enable-background="new 0 0 15.987 9.992" xml:space="preserve">
<g>
	<path fill-rule="evenodd" clip-rule="evenodd" fill="#928F8B" d="M15.987,9.024c0,0.228-0.09,0.427-0.218,0.595l-5.343-4.092
		l5.536-4.24c0.005,0.161,0.003,0.328-0.007,0.509c-0.01,0.175,0.006,0.276,0.031,0.343V9.024z M7.155,5.778L0.173,0.429
		C0.321,0.204,0.568,0.056,0.949,0h14.016c0.402,0.051,0.654,0.203,0.802,0.438l-6.971,5.34C8.343,6.125,7.607,6.125,7.155,5.778z
		 M0.204,9.602C0.085,9.436,0,9.244,0,9.024V1.296l5.523,4.231L0.204,9.602z M7.155,6.777c0.452,0.346,1.188,0.346,1.641,0
		l0.979-0.75l5.178,3.965H0.999l5.177-3.965L7.155,6.777z"/>
</g>
</svg>
