<?xml version="1.0" encoding="utf-8"?>
<!-- Generator: Adobe Illustrator 16.0.4, SVG Export Plug-In . SVG Version: 6.00 Build 0)  -->
<!DOCTYPE svg PUBLIC "-//W3C//DTD SVG 1.1//EN" "http://www.w3.org/Graphics/SVG/1.1/DTD/svg11.dtd">
<svg version="1.1" id="Layer_1" xmlns="http://www.w3.org/2000/svg" xmlns:xlink="http://www.w3.org/1999/xlink" x="0px" y="0px"
	 width="115.656px" height="63.982px" viewBox="0.038 0 115.656 63.982" enable-background="new 0.038 0 115.656 63.982"
	 xml:space="preserve">
<g>
	<path d="M0.038,28.254h5.437v11.653l9.787-11.653h6.679l-11.146,12.78l11.612,14.328H15.3L5.553,42.78H5.475v12.582H0.038V28.254z"
		/>
	<path d="M24.506,36.411c2.018-0.934,4.737-1.516,6.951-1.516c6.096,0,8.62,2.525,8.62,8.428v2.562c0,2.021,0.039,3.535,0.077,5.01
		c0.039,1.516,0.116,2.913,0.233,4.467h-4.582c-0.194-1.049-0.194-2.367-0.234-2.99h-0.077c-1.205,2.217-3.806,3.455-6.175,3.455
		c-3.533,0-6.989-2.135-6.989-5.939c0-2.99,1.436-4.739,3.417-5.709c1.98-0.973,4.543-1.163,6.718-1.163h2.874
		c0-3.226-1.438-4.311-4.505-4.311c-2.213,0-4.427,0.854-6.174,2.171L24.506,36.411z M30.603,52.022c1.592,0,2.835-0.699,3.65-1.785
		c0.854-1.126,1.087-2.564,1.087-4.117h-2.253c-2.33,0-5.787,0.389-5.787,3.455C27.301,51.286,28.738,52.022,30.603,52.022z"/>
	<path d="M55.535,39.557c-1.594-0.543-2.758-0.854-4.659-0.854c-1.397,0-3.068,0.504-3.068,2.213c0,3.184,9.049,1.164,9.049,8.389
		c0,4.66-4.154,6.523-8.389,6.523c-1.98,0-3.999-0.351-5.902-0.854l0.312-4.271c1.632,0.816,3.34,1.318,5.128,1.318
		c1.32,0,3.417-0.503,3.417-2.445c0-3.922-9.048-1.244-9.048-8.465c0-4.312,3.769-6.216,7.846-6.216
		c2.446,0,4.039,0.389,5.671,0.739L55.535,39.557z"/>
	<path d="M75.652,54.237c-1.902,1.049-4.078,1.594-6.875,1.594c-6.601,0-10.444-3.809-10.444-10.369
		c0-5.787,3.066-10.565,9.279-10.565c7.418,0,9.515,5.089,9.515,12.08H63.3c0.235,3.224,2.486,5.047,5.709,5.047
		c2.526,0,4.698-0.933,6.641-2.021v4.234H75.652z M72.156,43.401c-0.155-2.525-1.321-4.698-4.232-4.698
		c-2.914,0-4.389,2.02-4.624,4.698H72.156z"/>
	<path d="M87.536,49.961h0.078l4.812-14.601h5.282l-7.496,19.847c-1.67,4.428-2.872,8.774-8.312,8.774
		c-1.24,0-2.482-0.19-3.688-0.543l0.349-3.845c0.661,0.232,1.398,0.349,2.682,0.349c2.095,0,3.378-1.437,3.378-3.571l-7.65-21.011
		h5.748L87.536,49.961z"/>
	<path d="M99.031,36.411c2.018-0.934,4.738-1.516,6.952-1.516c6.097,0,8.619,2.525,8.619,8.428v2.562c0,2.021,0.04,3.535,0.078,5.01
		c0.041,1.516,0.117,2.913,0.236,4.467h-4.583c-0.194-1.049-0.194-2.367-0.233-2.99h-0.078c-1.205,2.217-3.806,3.455-6.174,3.455
		c-3.537,0-6.992-2.135-6.992-5.939c0-2.99,1.438-4.739,3.417-5.709c1.981-0.973,4.545-1.163,6.721-1.163h2.874
		c0-3.226-1.438-4.311-4.506-4.311c-2.216,0-4.428,0.854-6.174,2.171L99.031,36.411z M105.128,52.022
		c1.594,0,2.833-0.699,3.65-1.785c0.854-1.126,1.089-2.564,1.089-4.117h-2.252c-2.331,0-5.788,0.389-5.788,3.455
		C101.826,51.286,103.266,52.022,105.128,52.022z"/>
</g>
<g>
	<path fill="#0A72BA" d="M80.79,14.282c-0.751,0.229-3.224,6.639-4.521,10.186c2.331,1.61,4.761,3.055,7.005,4.038
		c4.503,1.97,5.91,1.169,8.705-0.094c2.003-0.904,5.146-3.02,7.899-5.03c-3.344-2.195-7.552-4.854-9.96-5.99
		C85.403,15.255,81.879,13.951,80.79,14.282z"/>
	<path fill="#0A72BA" d="M82.642,10.923c0,0,4.109-2.416,10.697-4.769c3.532-1.261,7.044-1.883,9.545-2.188
		c-1.411-0.398-2.729-0.767-3.723-1.042c-3.146-0.867-7.679-1.937-11.474-2.522c-0.179,0.908-0.616,2.394-1.72,4.527
		C84.473,7.81,82.642,10.923,82.642,10.923z"/>
	<path fill="#0A72BA" d="M84.657,0.043c-3.448-0.237-3.978,0.545-4.646,1.013C78.24,2.026,70.9,6.412,67.343,9.511
		c-3.37,2.937-2.808,4.771-1.238,6.617c1.271,1.495,3.5,3.268,6.969,5.981c0.157,0.125,0.317,0.247,0.479,0.373
		c1.394-3.091,4.429-9.795,5.92-12.938C81.22,5.857,83.596,1.814,84.657,0.043z"/>
	<path fill="#0A72BA" d="M114.811,7.764c-1.205-0.629-2.277-0.969-3.212-1.273c-0.472-0.153-1.709-0.518-3.263-0.967
		c-2.753,0.361-7.314,1.049-11.734,2.108c-4.579,1.098-12.268,4.832-12.268,4.832s9.721,3.127,18.831,8.422
		c0.305-0.242,0.586-0.467,0.842-0.677c2.824-2.313,10-8.272,11.53-10.876C115.913,8.688,115.594,8.172,114.811,7.764z"/>
</g>
<path fill="#FFFFFF" d="M96.604,7.63c4.417-1.058,8.98-1.746,11.731-2.108c-1.632-0.473-3.617-1.038-5.451-1.555
	c-2.5,0.305-6.012,0.927-9.543,2.188c-6.591,2.353-10.7,4.769-10.7,4.769s1.833-3.114,3.327-5.992
	c1.105-2.134,1.54-3.619,1.721-4.527c-0.454-0.071-0.897-0.133-1.328-0.188c-0.635-0.081-1.199-0.136-1.701-0.172
	c-1.064,1.771-3.439,5.813-5.186,9.503c-1.491,3.142-4.528,9.846-5.921,12.937c0.878,0.675,1.79,1.343,2.719,1.984
	c1.297-3.547,3.769-9.957,4.521-10.186c1.089-0.331,4.612,0.974,9.129,3.107c2.409,1.137,6.617,3.796,9.959,5.991
	c1.22-0.891,2.356-1.76,3.288-2.496c-9.11-5.294-18.829-8.422-18.829-8.422S92.022,8.727,96.604,7.63z"/>
</svg>
