<?xml version="1.0" encoding="utf-8"?>
<!-- Generator: Adobe Illustrator 16.0.4, SVG Export Plug-In . SVG Version: 6.00 Build 0)  -->
<!DOCTYPE svg PUBLIC "-//W3C//DTD SVG 1.1//EN" "http://www.w3.org/Graphics/SVG/1.1/DTD/svg11.dtd">
<svg version="1.1" id="Layer_1" xmlns="http://www.w3.org/2000/svg" xmlns:xlink="http://www.w3.org/1999/xlink" x="0px" y="0px"
	 width="81.943px" height="45.333px" viewBox="0 0 81.943 45.333" enable-background="new 0 0 81.943 45.333" xml:space="preserve">
<g id="logo_1_">
	<g>
		<path d="M0,20.018h3.853v8.256l6.934-8.256h4.732l-7.896,9.055l8.227,10.151h-5.035L3.908,30.31H3.853v8.915H0V20.018z"/>
		<path d="M17.336,25.798c1.429-0.662,3.356-1.074,4.925-1.074c4.319,0,6.107,1.789,6.107,5.971v1.816
			c0,1.432,0.027,2.504,0.056,3.549c0.027,1.074,0.082,2.064,0.164,3.165h-3.245c-0.138-0.743-0.138-1.679-0.166-2.118h-0.055
			c-0.854,1.569-2.697,2.447-4.375,2.447c-2.504,0-4.952-1.512-4.952-4.209c0-2.119,1.017-3.357,2.42-4.045
			c1.404-0.688,3.219-0.824,4.761-0.824h2.035c0-2.285-1.018-3.055-3.19-3.055c-1.569,0-3.138,0.605-4.375,1.539L17.336,25.798z
			 M21.655,36.858c1.128,0,2.009-0.496,2.586-1.266c0.605-0.797,0.771-1.816,0.771-2.918h-1.598c-1.649,0-4.1,0.276-4.1,2.449
			C19.315,36.337,20.334,36.858,21.655,36.858z"/>
		<path d="M39.32,28.026c-1.128-0.385-1.953-0.605-3.301-0.605c-0.989,0-2.175,0.358-2.175,1.568c0,2.256,6.412,0.826,6.412,5.943
			c0,3.302-2.943,4.623-5.943,4.623c-1.403,0-2.833-0.248-4.182-0.605l0.22-3.026c1.156,0.579,2.367,0.935,3.634,0.935
			c0.936,0,2.42-0.356,2.42-1.733c0-2.778-6.41-0.881-6.41-5.997c0-3.055,2.67-4.404,5.559-4.404c1.733,0,2.861,0.275,4.018,0.523
			L39.32,28.026z"/>
		<path d="M53.573,38.428c-1.348,0.742-2.89,1.128-4.871,1.128c-4.677,0-7.4-2.697-7.4-7.346c0-4.101,2.174-7.486,6.574-7.486
			c5.256,0,6.741,3.605,6.741,8.559h-9.796c0.167,2.283,1.762,3.576,4.045,3.576c1.79,0,3.33-0.66,4.706-1.431L53.573,38.428
			L53.573,38.428z M51.097,30.749c-0.11-1.789-0.937-3.328-2.999-3.328c-2.064,0-3.109,1.432-3.276,3.328H51.097z"/>
		<path d="M61.993,35.399h0.056l3.41-10.346h3.743l-5.312,14.061c-1.184,3.138-2.034,6.219-5.889,6.219
			c-0.88,0-1.76-0.137-2.613-0.386l0.247-2.724c0.469,0.165,0.991,0.246,1.899,0.246c1.484,0,2.394-1.017,2.394-2.529l-5.42-14.887
			h4.072L61.993,35.399z"/>
		<path d="M70.138,25.798c1.43-0.662,3.357-1.074,4.926-1.074c4.319,0,6.106,1.789,6.106,5.971v1.816
			c0,1.432,0.029,2.504,0.056,3.549c0.029,1.074,0.083,2.064,0.168,3.165h-3.248c-0.137-0.743-0.137-1.679-0.165-2.118h-0.056
			c-0.854,1.569-2.697,2.447-4.374,2.447c-2.506,0-4.954-1.512-4.954-4.209c0-2.119,1.019-3.357,2.42-4.045
			c1.404-0.688,3.221-0.824,4.762-0.824h2.036c0-2.285-1.019-3.055-3.191-3.055c-1.57,0-3.138,0.605-4.374,1.539L70.138,25.798z
			 M74.457,36.858c1.13,0,2.009-0.496,2.587-1.266c0.605-0.797,0.771-1.816,0.771-2.918h-1.596c-1.651,0-4.101,0.276-4.101,2.449
			C72.118,36.337,73.139,36.858,74.457,36.858z"/>
	</g>
	<g>
		<path fill="#0A72BA" d="M57.214,10.119c-0.533,0.162-2.283,4.704-3.203,7.217c1.65,1.141,3.373,2.165,4.963,2.86
			c3.189,1.396,4.188,0.828,6.167-0.066c1.419-0.641,3.646-2.14,5.597-3.564c-2.369-1.555-5.351-3.438-7.057-4.244
			C60.482,10.809,57.985,9.884,57.214,10.119z"/>
		<path fill="#0A72BA" d="M58.525,7.739c0,0,2.911-1.711,7.579-3.378c2.502-0.894,4.991-1.334,6.763-1.55
			c-0.999-0.283-1.933-0.544-2.638-0.738c-2.229-0.615-5.439-1.372-8.128-1.788c-0.128,0.644-0.438,1.696-1.22,3.208
			C59.823,5.533,58.525,7.739,58.525,7.739z"/>
		<path fill="#0A72BA" d="M59.954,0.031c-2.443-0.168-2.818,0.386-3.293,0.717c-1.255,0.687-6.454,3.795-8.975,5.99
			c-2.388,2.081-1.989,3.38-0.878,4.688c0.901,1.059,2.479,2.315,4.938,4.238c0.112,0.088,0.226,0.175,0.339,0.264
			c0.987-2.19,3.139-6.94,4.194-9.167C57.519,4.149,59.201,1.285,59.954,0.031z"/>
		<path fill="#0A72BA" d="M81.318,5.5c-0.854-0.445-1.614-0.687-2.276-0.902c-0.334-0.108-1.211-0.367-2.312-0.685
			c-1.95,0.256-5.182,0.743-8.314,1.493c-3.244,0.778-8.692,3.424-8.692,3.424s6.888,2.216,13.342,5.967
			c0.217-0.171,0.416-0.331,0.597-0.479c2.001-1.639,7.085-5.861,8.169-7.706C82.099,6.155,81.873,5.79,81.318,5.5z"/>
	</g>
	<path fill="#FFFFFF" d="M68.419,5.406c3.13-0.75,6.362-1.237,8.312-1.494c-1.156-0.335-2.563-0.735-3.862-1.102
		c-1.771,0.216-4.26,0.656-6.762,1.55c-4.67,1.667-7.581,3.378-7.581,3.378s1.298-2.207,2.357-4.246
		c0.783-1.512,1.091-2.564,1.22-3.208c-0.322-0.05-0.637-0.095-0.941-0.134c-0.45-0.057-0.851-0.096-1.206-0.122
		c-0.754,1.254-2.437,4.119-3.673,6.733c-1.057,2.226-3.209,6.976-4.195,9.166c0.622,0.478,1.268,0.952,1.926,1.406
		c0.919-2.513,2.67-7.055,3.202-7.217c0.772-0.234,3.269,0.69,6.468,2.202c1.707,0.805,4.688,2.689,7.057,4.245
		c0.864-0.631,1.67-1.247,2.329-1.768c-6.454-3.751-13.341-5.968-13.341-5.968S65.172,6.183,68.419,5.406z"/>
</g>
</svg>
