<?xml version="1.0" encoding="utf-8"?>
<!-- Generator: Adobe Illustrator 16.0.4, SVG Export Plug-In . SVG Version: 6.00 Build 0)  -->
<!DOCTYPE svg PUBLIC "-//W3C//DTD SVG 1.1//EN" "http://www.w3.org/Graphics/SVG/1.1/DTD/svg11.dtd">
<svg version="1.1" id="Layer_1" xmlns="http://www.w3.org/2000/svg" xmlns:xlink="http://www.w3.org/1999/xlink" x="0px" y="0px"
	 width="256.445px" height="7.889px" viewBox="0 0 256.445 7.889" enable-background="new 0 0 256.445 7.889" xml:space="preserve">
<path fill="#333333" d="M5.222,2.161H3.016v5.671h-0.81V2.161H0V1.44h5.222V2.161z"/>
<path fill="#333333" d="M13.689,1.44v6.392h-0.81V4.924H9.359v2.908H8.55V1.44h0.81v2.765h3.521V1.44H13.689z"/>
<path fill="#333333" d="M21.961,7.114v0.719h-4.339V1.44h4.258v0.721h-3.448v2.07h2.998v0.676h-2.998v2.207H21.961z"/>
<path fill="#333333" d="M30.177,7.833V1.45h0.811v6.382H30.177z"/>
<path fill="#333333" d="M39.539,2.161h-2.206v5.671h-0.811V2.161h-2.206V1.44h5.223V2.161z"/>
<path fill="#333333" d="M52.812,7.833V2.892L50.688,6.68h-0.459l-2.133-3.789v4.941h-0.811V1.44h0.854l2.313,4.15l2.322-4.15h0.847
	v6.392H52.812z"/>
<path fill="#333333" d="M56.889,7.833l2.629-6.392h0.666l2.62,6.392h-0.864l-0.756-1.873H58.5l-0.747,1.873H56.889z M59.851,2.378
	l-1.188,2.953h2.341L59.851,2.378z"/>
<path fill="#333333" d="M66.87,2.954v4.878H66.06V1.44h0.63l3.961,4.98V1.451h0.812v6.383h-0.686L66.87,2.954z"/>
<path fill="#333333" d="M74.727,7.833l2.629-6.392h0.666l2.62,6.392h-0.864l-0.756-1.873h-2.683l-0.747,1.873H74.727z M77.688,2.378
	L76.5,5.331h2.341L77.688,2.378z"/>
<path fill="#333333" d="M88.426,6.969c-0.567,0.611-1.206,0.908-1.944,0.908c-1.691,0-2.979-1.611-2.979-3.258
	c0-1.72,1.27-3.224,2.979-3.224c1.233,0,2.025,0.568,2.439,1.396L88.3,3.224c-0.378-0.737-1.053-1.098-1.836-1.098
	c-1.306,0-2.144,1.215-2.144,2.511c0,1.369,0.964,2.512,2.225,2.512c0.684,0,1.313-0.322,1.881-1.008V5.26h-1.377V4.647h2.062v3.188
	h-0.685V6.969z"/>
<path fill="#333333" d="M97.102,7.114v0.719h-4.339V1.44h4.258v0.721h-3.447v2.07h2.997v0.676h-2.997v2.207H97.102z"/>
<path fill="#333333" d="M106.183,7.833V2.892l-2.125,3.789h-0.459l-2.133-3.789v4.941h-0.812V1.44h0.855l2.313,4.15l2.322-4.15
	h0.847v6.392H106.183z"/>
<path fill="#333333" d="M115.264,7.114v0.719h-4.339V1.44h4.258v0.721h-3.448v2.07h2.998v0.676h-2.998v2.207H115.264z"/>
<path fill="#333333" d="M119.627,2.954v4.878h-0.812V1.44h0.63l3.962,4.98V1.451h0.811v6.383h-0.685L119.627,2.954z"/>
<path fill="#333333" d="M132.769,2.161h-2.207v5.671h-0.81V2.161h-2.206V1.44h5.222L132.769,2.161L132.769,2.161z"/>
<path fill="#333333" d="M143.153,1.406c1.136,0,1.98,0.575,2.378,1.396l-0.641,0.414c-0.378-0.811-1.126-1.08-1.772-1.08
	c-1.424,0-2.188,1.287-2.188,2.494c0,1.332,0.945,2.529,2.215,2.529c0.666,0,1.459-0.332,1.828-1.125l0.676,0.369
	c-0.405,0.955-1.549,1.486-2.539,1.486c-1.756,0-2.998-1.676-2.998-3.295C140.11,3.044,141.227,1.406,143.153,1.406z"/>
<path fill="#333333" d="M149.065,7.833V1.44h0.812v5.673h3.563v0.719H149.065z"/>
<path fill="#333333" d="M156.022,4.637c0-1.701,1.297-3.24,3.025-3.24c1.791,0,2.998,1.646,2.998,3.25
	c0,1.701-1.288,3.232-3.018,3.232C157.237,7.877,156.022,6.276,156.022,4.637z M159.039,7.149c1.358,0,2.188-1.277,2.188-2.512
	c0-1.306-0.891-2.503-2.188-2.503c-1.359,0-2.196,1.26-2.196,2.503C156.842,5.942,157.715,7.149,159.039,7.149z"/>
<path fill="#333333" d="M170.119,4.672V1.44h0.81v3.232c0,1.73-0.757,3.205-2.719,3.205c-2.034,0-2.729-1.566-2.729-3.205V1.44
	h0.812v3.232c0,1.262,0.449,2.477,1.908,2.477C169.686,7.149,170.119,5.897,170.119,4.672z"/>
<path fill="#333333" d="M174.761,7.833V1.44h2.215c2.053,0,3.088,1.423,3.088,3.187c0,1.936-1.207,3.205-3.088,3.205H174.761z
	 M176.976,2.161h-1.404v4.953h1.404c1.478,0,2.269-1.072,2.269-2.486C179.244,3.188,178.425,2.161,176.976,2.161z"/>
<path fill="#333333" d="M190.925,1.406c1.135,0,1.979,0.575,2.377,1.396l-0.639,0.414c-0.379-0.811-1.126-1.08-1.773-1.08
	c-1.424,0-2.188,1.287-2.188,2.494c0,1.332,0.944,2.529,2.215,2.529c0.666,0,1.458-0.332,1.827-1.125l0.676,0.369
	c-0.405,0.955-1.549,1.486-2.539,1.486c-1.756,0-2.998-1.676-2.998-3.295C187.882,3.044,189,1.406,190.925,1.406z"/>
<path fill="#333333" d="M196.37,4.637c0-1.701,1.296-3.24,3.023-3.24c1.792,0,2.998,1.646,2.998,3.25
	c0,1.701-1.287,3.232-3.016,3.232C197.585,7.877,196.37,6.276,196.37,4.637z M199.386,7.149c1.359,0,2.188-1.277,2.188-2.512
	c0-1.306-0.894-2.503-2.188-2.503c-1.36,0-2.197,1.26-2.197,2.503C197.188,5.942,198.062,7.149,199.386,7.149z"/>
<path fill="#333333" d="M211.455,7.833V2.892l-2.124,3.789h-0.46l-2.134-3.789v4.941h-0.811V1.44h0.855l2.312,4.15l2.323-4.15h0.846
	v6.392H211.455z"/>
<path fill="#333333" d="M216.197,7.833V1.44h2.663c1.125,0,1.937,1.037,1.937,2.045c0,1.052-0.756,2.052-1.881,2.052h-1.908v2.295
	H216.197z M217.007,4.817h1.863c0.666,0,1.106-0.604,1.106-1.332c0-0.756-0.541-1.324-1.162-1.324h-1.809L217.007,4.817
	L217.007,4.817z"/>
<path fill="#333333" d="M223.09,7.833l2.629-6.392h0.666l2.62,6.392h-0.865l-0.756-1.873h-2.683l-0.747,1.873H223.09z
	 M226.052,2.378l-1.188,2.953h2.341L226.052,2.378z"/>
<path fill="#333333" d="M233.072,2.954v4.878h-0.812V1.44h0.631l3.961,4.98V1.451h0.812v6.383h-0.687L233.072,2.954z"/>
<path fill="#333333" d="M241.756,1.44l1.936,3.332l1.954-3.332h0.882l-2.431,4.062v2.332h-0.811V5.483l-2.422-4.041h0.892V1.44z"/>
<path fill="#333333" d="M252.365,0.66h-1.046v2.552h-0.659V0.66h-1.046V0h2.751V0.66z M255.5,0.022h0.945v3.189h-0.659V0.923
	l-0.858,1.827h-0.539l-0.856-1.827v2.289h-0.66V0.022h0.936l0.848,1.957L255.5,0.022z"/>
</svg>
